<svg xmlns="http://www.w3.org/2000/svg" viewBox="0 0 200 200"><rect x="0.5" y="0.5" width="199" height="199" rx="88.95" style="fill:#872584;stroke:#1d1d1b;stroke-miterlimit:10"/><path d="M244.41,292.27a9.31,9.31,0,1,0,18.3,2.4,9.86,9.86,0,0,0-.3-2.4Z" transform="translate(-155.51 -156.17)" style="fill:#adca19"/><path d="M291.21,282a4,4,0,0,0-.9-2.1c-.1-.1-8.1-8.8-8.1-31.8,0-17.9-12-25.4-21.9-27.7v-5.2a6.87,6.87,0,0,0-6.8-6.8,7,7,0,0,0-6.9,6.8v5.3c-9.9,2.3-21.9,9.7-21.9,27.7,0,23-8,31.7-8.1,31.7a3.46,3.46,0,0,0-1,2.1h0v6.3h75.6V282Z" transform="translate(-155.51 -156.17)" style="fill:#adca19"/></svg>